<svg width="144" height="48" viewBox="0 0 144 48" fill="none" xmlns="http://www.w3.org/2000/svg">
<g id="Vector">
<path d="M93.6344 17.6623C93.5316 17.6623 93.4288 17.6623 93.2233 17.6623C91.6815 17.6623 89.0091 18.5974 88.1869 21.0909L88.0841 21.2987L87.9813 21.4026C87.8785 21.4026 87.8785 21.2987 87.8785 21.2987L87.673 18.5974C87.673 18.3896 87.4674 18.1818 87.2618 18.1818H83.5616C83.3561 18.1818 83.0477 18.3896 83.1505 18.7013C83.2533 19.8441 83.2533 21.2987 83.2533 23.5844V33.7662C83.2533 33.974 83.4588 34.1818 83.6644 34.1818H88.3924C88.598 34.1818 88.8036 33.974 88.8036 33.7662V26.2857C88.8036 25.974 88.8036 25.7662 88.8036 25.4545C89.1119 23.8961 90.6537 22.961 92.8121 22.961C93.1205 22.961 93.326 22.961 93.5316 22.961C93.84 22.961 94.0455 22.7532 94.0455 22.4415V18.2857C94.1483 17.8701 93.9427 17.6623 93.6344 17.6623Z" fill="white"/>
<path d="M106.484 30.026C105.662 30.026 104.634 30.1299 104.223 30.1299C101.962 30.1299 101.756 28.4675 101.756 26.7013V22.5454C101.756 22.2338 101.962 22.026 102.27 22.026H106.484C106.793 22.026 106.998 21.8182 106.998 21.5065V18.4935C106.998 18.1818 106.793 17.974 106.484 17.974H102.27C101.962 17.974 101.756 17.7662 101.756 17.4545V13.8182C101.756 13.5065 101.448 13.2987 101.14 13.2987L96.7201 14.3377C96.5145 14.3377 96.3089 14.5454 96.3089 14.8571V27.8442C96.3089 30.2338 96.8228 31.8961 97.7479 32.8312C98.4674 33.5584 99.9063 34.3896 101.859 34.3896C104.429 34.3896 105.765 34.1818 106.587 34.0779C106.793 34.0779 106.998 33.8701 106.998 33.5584V30.3377C106.998 30.2338 106.69 29.9221 106.484 30.026Z" fill="white"/>
<path d="M125.808 18.4935C125.808 18.1818 125.602 17.974 125.294 17.974H120.668C120.36 17.974 120.154 18.1818 120.154 18.4935V27.3247C120.154 27.6364 120.154 27.9481 120.052 28.2598C119.846 28.7792 119.229 30.2338 117.379 30.2338C116.146 30.2338 114.604 29.6104 114.604 26.4935V18.5974C114.604 18.2857 114.399 18.0779 114.09 18.0779H109.465C109.157 18.0779 108.951 18.2857 108.951 18.5974V27.6364C108.951 32.1039 111.007 34.5974 114.912 34.5974C117.174 34.5974 119.332 33.6623 120.463 32L120.668 31.7922C120.771 31.7922 120.874 31.8961 120.874 32L121.079 33.7662C121.079 33.974 121.285 34.1818 121.593 34.1818H125.396C125.705 34.1818 125.91 33.974 125.91 33.6624C125.808 32.1039 125.808 30.4416 125.808 28.6753V18.4935Z" fill="white"/>
<path d="M143.794 30.3376V24.7273C143.794 20.0519 141.225 17.6623 136.086 17.6623C133.002 17.6623 130.844 18.3896 129.713 18.9091C129.508 19.013 129.405 19.2208 129.405 19.4286L130.021 21.7143C130.124 22.026 130.433 22.1299 130.638 22.026C131.872 21.5065 133.413 21.0909 134.955 21.0909C137.114 21.0909 138.244 21.7143 138.244 22.8571V23.1688C138.244 23.2727 138.141 23.3766 138.039 23.3766H137.833C134.647 23.3766 132.18 23.8961 130.535 24.935C128.788 25.974 127.966 27.5324 127.966 29.6104C127.966 32 129.816 34.4935 133.413 34.4935C135.469 34.4935 137.422 33.8701 138.45 32.8312L138.552 32.7273H138.655C138.758 32.7273 138.758 32.7273 138.758 32.8312L138.964 33.7662C138.964 33.974 139.169 34.1818 139.478 34.1818H143.486C143.794 34.1818 144 33.974 144 33.6623C143.794 32.7273 143.794 31.5844 143.794 30.3376ZM138.347 28.7792C138.039 29.9221 136.908 30.8571 135.675 30.8571C134.236 30.8571 133.413 30.1298 133.413 28.987C133.413 27.3247 134.955 26.4935 137.936 26.4935H138.141C138.244 26.4935 138.347 26.5974 138.347 26.7013V27.8441C138.45 28.1558 138.45 28.4675 138.347 28.7792Z" fill="white"/>
<path d="M74.7237 18.0779H79.349C79.6573 18.0779 79.8629 18.2857 79.8629 18.5974V33.6623C79.8629 33.974 79.6573 34.1818 79.349 34.1818H74.7237C74.4154 34.1818 74.2098 33.974 74.2098 33.6623V18.4935C74.2098 18.2857 74.4154 18.0779 74.7237 18.0779Z" fill="white"/>
<path d="M72.0504 18.0779H66.9112C66.7056 18.0779 66.5001 18.2857 66.3973 18.4935L63.4166 28.4675H63.3138L60.1275 18.4935C60.0247 18.2857 59.8192 18.0779 59.6136 18.0779H54.2689C53.9605 18.0779 53.755 18.3896 53.8577 18.5974L60.0247 33.7662C60.1275 33.974 60.3331 34.0779 60.5386 34.0779H65.6778C65.8834 34.0779 66.0889 33.974 66.1917 33.7662L72.4615 18.5974C72.4615 18.2857 72.3587 18.0779 72.0504 18.0779Z" fill="white"/>
<path d="M76.9836 10.3895C74.9279 10.3895 73.7973 11.6363 73.7973 13.2986C73.7973 14.9609 74.9279 16.2077 76.9836 16.2077C78.9365 16.2077 80.1699 14.9609 80.1699 13.2986C80.1699 11.7402 79.0393 10.3895 76.9836 10.3895Z" fill="white"/>
<path d="M23.7429 0C10.5867 0 0 10.8052 0 24C0 37.2987 10.5867 48 23.7429 48C36.8992 48 47.4859 37.1948 47.4859 24C47.4859 10.8052 36.8992 0 23.7429 0ZM26.2097 36.4675C25.9014 36.987 25.593 37.6104 24.8735 37.6104C24.2568 37.6104 23.7429 36.987 23.4346 36.4675L11.3062 14.026C10.9978 13.4026 10.6895 12.7792 10.5867 12.0519C10.4839 10.9091 11.1006 10.1818 12.2312 10.1818C15.0064 10.1818 17.7815 10.1818 20.5566 10.1818C21.6873 10.1818 22.5095 10.7013 23.1262 11.8442C24.4624 14.5455 25.3875 16.8312 27.1348 19.3247C31.2461 24 35.2547 19.3247 36.8992 17.4545L26.2097 36.4675Z" fill="white"/>
</g>
</svg>
