<svg width="204" height="40" viewBox="0 0 204 40" fill="none" xmlns="http://www.w3.org/2000/svg">
<g id="binance">
<path d="M12.4769 16.8083L20.4005 9.0406L28.3282 16.8124L32.9387 12.2925L20.4005 0L7.86643 12.2883L12.4769 16.8083Z" fill="white"/>
<path d="M9.22102 19.9993L4.61062 15.4794L0 19.9995L4.6104 24.5194L9.22102 19.9993Z" fill="white"/>
<path d="M12.4769 23.1917L20.4005 30.9594L28.3279 23.1879L32.941 27.7053L32.9387 27.7079L20.4005 40L7.85967 27.7056L12.4769 23.1917Z" fill="white"/>
<path d="M36.1908 24.5216L40.8014 20.0014L36.191 15.4815L31.5804 20.0016L36.1908 24.5216Z" fill="white"/>
<path d="M25.077 19.9976H25.0789L20.4005 15.411L15.7197 19.9998L15.7262 20.0065L20.4005 24.589L25.0789 20.0024L25.0812 19.9998L25.077 19.9976Z" fill="white"/>
<path d="M47.9889 9.69236H58.0164C60.5052 9.69236 62.3872 10.3185 63.6626 11.5709C64.6497 12.5408 65.1431 13.7429 65.1431 15.1769V15.2375C65.1431 15.8435 65.0667 16.379 64.913 16.8434C64.7596 17.3084 64.5546 17.7271 64.2984 18.1008C64.0429 18.4749 63.7458 18.8031 63.4081 19.0855C63.07 19.3686 62.7068 19.6112 62.3179 19.8128C63.5689 20.2779 64.5537 20.9088 65.2716 21.7068C65.9893 22.5052 66.3486 23.6112 66.3486 25.025V25.0853C66.3486 26.0552 66.1585 26.9035 65.7779 27.6311C65.3973 28.358 64.8521 28.9643 64.1422 29.4493C63.4322 29.9342 62.5786 30.2975 61.5809 30.5402C60.5832 30.7825 59.4775 30.9035 58.2642 30.9035H47.9889V9.69236ZM57.0139 18.2676C58.0651 18.2676 58.8997 18.0913 59.5175 17.7375C60.1356 17.384 60.4446 16.8131 60.4446 16.0255V15.9648C60.4446 15.2581 60.1765 14.7178 59.6409 14.3438C59.105 13.97 58.3322 13.783 57.323 13.783H52.6248V18.2676H57.0139ZM58.2813 26.8132C59.3322 26.8132 60.1559 26.6268 60.754 26.2527C61.3514 25.879 61.6505 25.298 61.6505 24.51V24.4497C61.6505 23.7426 61.3721 23.1822 60.8158 22.7677C60.2593 22.3541 59.3631 22.1469 58.1266 22.1469H52.6248V26.8135L58.2813 26.8132Z" fill="white"/>
<path d="M72.3206 9.69236H77.0809V30.9041H72.3206V9.69236Z" fill="white"/>
<path d="M84.2907 9.69236H88.6791L98.8176 22.7528V9.69236H103.516V30.9041H99.4669L88.9885 17.4197V30.9041H84.2907V9.69236Z" fill="white"/>
<path d="M117.927 9.54104H122.316L131.589 30.9041H126.612L124.634 26.1469H115.485L113.507 30.9041H108.653L117.927 9.54104ZM122.934 22.0253L120.059 15.1469L117.185 22.0253H122.934Z" fill="white"/>
<path d="M136.727 9.69236H141.117L151.254 22.7528V9.69236H155.952V30.9041H151.904L141.425 17.4197V30.9041H136.727V9.69236Z" fill="white"/>
<path d="M173.083 31.2674C171.496 31.2674 170.023 30.9844 168.663 30.4192C167.303 29.854 166.128 29.0809 165.14 28.1009C164.15 27.1212 163.377 25.9646 162.822 24.6313C162.265 23.2978 161.987 21.8736 161.987 20.3584V20.2981C161.987 18.7829 162.265 17.3641 162.822 16.0406C163.377 14.7175 164.15 13.5559 165.14 12.5559C166.128 11.556 167.313 10.7678 168.694 10.1922C170.074 9.61654 171.6 9.32873 173.269 9.32873C174.278 9.32873 175.2 9.40992 176.034 9.57105C176.869 9.73312 177.626 9.9549 178.306 10.2377C178.987 10.5207 179.614 10.8641 180.192 11.2679C180.768 11.6723 181.304 12.1165 181.799 12.6014L178.77 16.0255C177.925 15.2783 177.065 14.6919 176.189 14.268C175.313 13.844 174.33 13.6317 173.237 13.6317C172.331 13.6317 171.491 13.8035 170.719 14.147C169.946 14.4904 169.281 14.9649 168.725 15.5708C168.169 16.1768 167.736 16.8791 167.426 17.6768C167.118 18.4752 166.963 19.3285 166.963 20.2374V20.2978C166.963 21.2067 167.118 22.0657 167.426 22.8732C167.736 23.6817 168.163 24.3884 168.709 24.9944C169.255 25.6003 169.915 26.0805 170.687 26.434C171.46 26.7879 172.31 26.9642 173.237 26.9642C174.474 26.9642 175.519 26.7421 176.374 26.2976C177.229 25.8537 178.08 25.2474 178.925 24.4794L181.954 27.4794C181.397 28.0655 180.819 28.5909 180.223 29.055C179.625 29.52 178.971 29.9187 178.26 30.2523C177.549 30.5853 176.771 30.8384 175.927 31.0096C175.081 31.1812 174.134 31.2674 173.083 31.2674Z" fill="white"/>
<path d="M187.556 9.69236H203.845V13.844H192.254V18.1469H202.454V22.2982H192.254V26.7528H204V30.9041H187.556V9.69236Z" fill="white"/>
</g>
</svg>
