<svg width="206" height="40" viewBox="0 0 206 40" fill="none" xmlns="http://www.w3.org/2000/svg">
<g id="coinbase">
<path d="M80.4088 13.8454C74.694 13.8454 70.2285 18.1394 70.2285 23.8877C70.2285 29.636 74.5807 33.8927 80.4088 33.8927C86.237 33.8927 90.6678 29.5644 90.6678 23.8503C90.6678 18.1363 86.3156 13.8454 80.4088 13.8454ZM80.4466 29.7512C77.1926 29.7512 74.8073 27.2601 74.8073 23.8908C74.8073 20.5216 77.1549 17.9931 80.4088 17.9931C83.6628 17.9931 86.0733 20.5309 86.0733 23.8908C86.0733 27.2507 83.7037 29.7418 80.4371 29.7418L80.4466 29.7512ZM91.9172 18.2297H94.7494V33.5377H99.2905V14.2315H91.9172V18.2297ZM58.7956 18.0055C59.9122 17.9938 61.0026 18.3404 61.9035 18.9932C62.8044 19.6461 63.4673 20.5701 63.793 21.627H68.6015C67.7298 16.9997 63.8811 13.8609 58.846 13.8609C53.1186 13.8454 48.6531 18.1301 48.6531 23.8784C48.6531 29.6266 53.0053 33.8833 58.8366 33.8833C63.7552 33.8833 67.692 30.7476 68.5637 26.0799H63.7961C63.4836 27.1392 62.8301 28.0686 61.9349 28.7268C61.0397 29.3849 59.9518 29.7359 58.8366 29.7263C55.5417 29.7263 53.235 27.2351 53.235 23.8659C53.235 20.4967 55.5039 17.9806 58.7956 17.9806V18.0055ZM178.219 22.0536L174.886 21.5678C173.313 21.3468 172.161 20.8236 172.161 19.5905C172.161 18.2453 173.64 17.5758 175.645 17.5758C177.847 17.5758 179.242 18.51 179.544 20.0389H183.949C183.458 16.1559 180.428 13.8796 175.767 13.8796C170.959 13.8796 167.78 16.3053 167.78 19.74C167.78 23.0251 169.864 24.9309 174.074 25.5256L177.404 26.0114C179.034 26.2356 179.94 26.8708 179.94 28.0634C179.94 29.5955 178.367 30.2432 176.164 30.2432C173.476 30.2432 171.963 29.1595 171.736 27.5185H167.242C167.658 31.2894 170.647 33.9394 176.098 33.9394C181.057 33.9394 184.349 31.6974 184.349 27.8517C184.349 24.3641 181.964 22.5643 178.219 22.0131V22.0536ZM97.0278 6.30038C96.463 6.3102 95.9138 6.48488 95.449 6.8025C94.9842 7.12011 94.6246 7.56649 94.4153 8.08563C94.2061 8.60477 94.1564 9.17353 94.2727 9.72049C94.3889 10.2674 94.6658 10.7682 95.0687 11.16C95.4716 11.5517 95.9824 11.817 96.5371 11.9225C97.0918 12.028 97.6656 11.969 98.1866 11.7529C98.7075 11.5368 99.1523 11.1732 99.4651 10.7079C99.778 10.2425 99.9449 9.69606 99.945 9.13714C99.9587 8.75458 99.8925 8.37333 99.7504 8.01727C99.6084 7.66121 99.3936 7.33799 99.1194 7.06789C98.8453 6.79779 98.5177 6.58662 98.1572 6.44758C97.7968 6.30855 97.4112 6.24466 97.0247 6.2599L97.0278 6.30038ZM163.683 20.8205C163.683 16.6479 161.109 13.8454 155.649 13.8454C150.501 13.8454 147.624 16.4206 147.055 20.3846H151.558C151.785 18.8556 152.996 17.582 155.57 17.582C157.88 17.582 159.013 18.591 159.013 19.8209C159.013 21.4277 156.933 21.8388 154.359 22.1003C150.875 22.4709 146.561 23.6573 146.561 28.1475C146.561 31.6195 149.173 33.8584 153.336 33.8584C156.593 33.8584 158.635 32.5132 159.658 30.3864C159.809 32.289 161.247 33.5221 163.255 33.5221H165.905V29.5176H163.671V20.8205H163.683ZM159.214 25.6782C159.214 28.2565 156.946 30.1591 154.179 30.1591C152.477 30.1591 151.032 29.4491 151.032 27.9576C151.032 26.0519 153.342 25.5318 155.46 25.3076C157.506 25.1208 158.642 24.6849 159.208 23.813L159.214 25.6782ZM135.106 13.8454C133.931 13.8297 132.768 14.0731 131.701 14.5579C130.633 15.0427 129.688 15.7566 128.935 16.6479V6.06061H124.394V33.5003H128.859V30.9718C129.608 31.8952 130.56 32.6374 131.642 33.1419C132.725 33.6465 133.909 33.9 135.106 33.8833C140.556 33.8833 144.682 29.6266 144.682 23.8784C144.682 18.1301 140.478 13.8454 135.106 13.8454ZM134.423 29.7512C131.169 29.7512 128.784 27.2601 128.784 23.8908C128.784 20.5216 131.204 17.9931 134.448 17.9931C137.693 17.9931 140.05 20.4842 140.05 23.8908C140.05 27.2974 137.677 29.7418 134.423 29.7418V29.7512ZM113.53 13.8454C110.579 13.8454 108.646 15.0411 107.51 16.7226V14.2315H103.007V33.5377H107.548V23.022C107.548 20.0732 109.436 17.9806 112.24 17.9806C114.855 17.9806 116.482 19.8116 116.482 22.4615V33.5128H121.033V22.1252C121.033 17.2707 118.487 13.8454 113.53 13.8454ZM206 23.2462C206 17.7222 201.909 13.8391 196.424 13.8391C190.596 13.8391 186.316 18.1706 186.316 23.8815C186.316 29.8913 190.898 33.8864 196.499 33.8864C201.22 33.8864 204.939 31.1213 205.887 27.204H201.166C200.487 28.9198 198.819 29.8913 196.584 29.8913C193.67 29.8913 191.474 28.1008 190.983 24.962H206V23.2462ZM191.238 21.7516C191.958 19.0643 194.001 17.7595 196.348 17.7595C198.923 17.7595 200.893 19.2137 201.346 21.7516H191.238Z" fill="white"/>
<path d="M20.2041 40C31.3625 40 40.4082 31.0457 40.4082 20C40.4082 8.95431 31.3625 0 20.2041 0C9.04568 0 0 8.95431 0 20C0 31.0457 9.04568 40 20.2041 40Z" fill="white"/>
<path d="M27.1722 21.3069C26.8438 23.017 25.8828 24.5444 24.4771 25.5903C23.0714 26.6361 21.3221 27.1253 19.5714 26.9621C17.8206 26.7988 16.1943 25.995 15.0106 24.7077C13.8269 23.4204 13.1709 21.7422 13.1709 20.0015C13.1709 18.2608 13.8269 16.5826 15.0106 15.2953C16.1943 14.008 17.8206 13.2042 19.5714 13.0409C21.3221 12.8777 23.0714 13.3669 24.4771 14.4127C25.8828 15.4586 26.8438 16.986 27.1722 18.6961H34.299C33.96 15.1165 32.241 11.8037 29.4992 9.44576C26.7573 7.08784 23.2033 5.866 19.5752 6.03401C15.9472 6.20202 12.5239 7.74697 10.0164 10.348C7.50891 12.949 6.10987 16.4062 6.10987 20.0015C6.10987 23.5968 7.50891 27.054 10.0164 29.655C12.5239 32.256 15.9472 33.801 19.5752 33.969C23.2033 34.137 26.7573 32.9152 29.4992 30.5572C32.241 28.1993 33.96 24.8865 34.299 21.3069H27.1722Z" fill="black"/>
</g>
</svg>
