<svg width="222" height="43" viewBox="0 0 222 43" fill="none" xmlns="http://www.w3.org/2000/svg">
<g id="legendary">
<g id="Vector">
<path d="M58.6407 16.9955H55.4443V31.3891H68.8645V28.8262H58.6407V16.9955Z" fill="white"/>
<path d="M73.1714 16.9955V31.3891H86.5916V28.8262H76.3678V25.142H83.2366V22.785H76.3678V19.5584H86.5916V16.9955H73.1714Z" fill="white"/>
<path d="M141.292 27.0871L132.066 17.1328V16.9955H129.164V31.3891H132.066V21.4349L141.292 31.3891H144.194V16.9955H141.292V27.0871Z" fill="white"/>
<path d="M110.87 16.9955V31.3891H124.291V28.8262H114.067V25.142H120.89V22.785H114.067V19.5584H124.291V16.9955H110.87Z" fill="white"/>
<path d="M98.2889 26.1717H103.095L103.117 28.277V28.3685C102.46 28.5974 101.78 28.7804 101.1 28.9177C100.193 29.1008 99.2863 29.1695 98.3796 29.1695C97.6995 29.1695 97.0421 29.0779 96.3847 28.8949C95.7726 28.7347 95.1832 28.4372 94.6845 28.0482C94.1631 27.6363 93.7551 27.0871 93.483 26.4921C93.143 25.7827 92.9843 24.9818 93.007 24.2038C92.9843 23.4257 93.143 22.6706 93.4604 21.9612C93.7551 21.3662 94.1858 20.817 94.7298 20.428C95.2285 20.039 95.8179 19.7415 96.43 19.5813C97.0648 19.3982 97.7222 19.3067 98.4022 19.3296C98.969 19.3067 99.513 19.3296 100.08 19.3982C100.646 19.4669 101.236 19.5813 101.78 19.7644C102.641 20.0161 103.457 20.3822 104.206 20.8628L105.475 18.3456L103.956 17.7964C103.593 17.682 103.117 17.5447 102.573 17.4074C102.029 17.2701 101.372 17.1557 100.646 17.0412C99.8984 16.9268 99.1276 16.8811 98.3796 16.8811C97.2234 16.8582 96.0446 17.0412 94.9339 17.3845C93.9591 17.682 93.0523 18.1854 92.2589 18.8262C91.5335 19.4669 90.9441 20.2449 90.5587 21.1145C89.7426 23.0825 89.7426 25.2793 90.5587 27.2472C90.9441 28.1397 91.5335 28.9177 92.2589 29.5356C93.0523 30.1763 93.9364 30.6569 94.9112 30.9544C96.022 31.2747 97.1781 31.4349 98.3569 31.4349C99.0143 31.4349 99.6717 31.412 100.352 31.3891C101.032 31.3434 101.712 31.2518 102.369 31.1145C103.049 30.9544 103.707 30.7484 104.364 30.4738C104.818 30.2907 105.271 30.0848 105.702 29.8331V24.2038H98.2662L98.2889 26.1717Z" fill="white"/>
<path d="M173.37 25.8514L175.636 21.0001L177.926 25.8514H173.37ZM174.458 17.1557L167.725 31.3663H170.785L172.417 27.9109H178.923L180.556 31.3663H183.979L176.861 17.1557H174.458Z" fill="white"/>
<path d="M217.416 17.1328L213.199 22.8994L209.232 17.1328H205.492L211.318 25.6454V31.3663H215.013V25.8285L221.156 17.1328H217.416Z" fill="white"/>
<path d="M190.756 23.4715V19.65H196.401V19.6271C196.605 19.6271 196.809 19.65 197.013 19.6957C197.353 19.7644 197.693 19.9017 197.988 20.1076C198.215 20.2678 198.396 20.4966 198.509 20.7484C198.623 21.0001 198.668 21.2747 198.645 21.5722C198.645 21.8468 198.577 22.0985 198.464 22.3502C198.351 22.6019 198.169 22.8308 197.943 22.9681C197.648 23.174 197.308 23.2884 196.945 23.3571C196.401 23.4486 195.857 23.4944 195.313 23.4715H190.756ZM200.867 24.2495C201.57 23.6088 201.932 22.6935 201.932 21.4806C201.955 20.7941 201.819 20.1076 201.524 19.4898C201.252 18.9635 200.844 18.5058 200.345 18.1854C199.801 17.8193 199.167 17.5676 198.532 17.4532C197.829 17.293 197.126 17.2014 196.401 17.1557H187.651V31.3663H190.756V25.6683H194.61L198.577 31.3663H202.227L198.033 25.4395C199.189 25.2106 200.187 24.8674 200.867 24.2495Z" fill="white"/>
<path d="M161.604 26.4921C161.355 27.3159 161.015 27.7049 160.357 28.1855C159.7 28.6889 158.929 28.8262 158.045 28.9406C157.274 29.0322 153.783 28.9635 152.899 28.9406V19.5813H157.002C157.002 19.5813 159.088 19.5355 159.972 20.0619C160.856 20.5882 161.174 21.0001 161.355 21.3891C161.536 21.7781 161.854 22.3044 161.854 23.6774C161.854 25.0505 161.854 25.6454 161.604 26.4921ZM163.894 20.1076C163.463 19.3296 162.715 18.666 161.718 18.0481C160.72 17.4303 159.065 17.1786 158.385 17.1557C157.705 17.1328 152.627 17.1557 152.627 17.1557H149.816V31.3663H152.899V31.3205H158.771C159.881 31.3205 160.947 31.0001 161.876 30.4052C163.078 29.5814 163.327 29.2381 163.984 28.1626C164.642 27.0871 164.869 26.2862 164.914 25.6912C164.982 24.7301 164.982 23.769 164.914 22.8308C164.823 21.7095 164.325 20.8857 163.894 20.1076Z" fill="white"/>
</g>
<g id="Vector_2">
<path d="M11.7542 15.8181V11.4862H22.3856V8.76963H12.0185C12.6206 7.22778 14.1037 6.00898 15.0728 5.3335C15.763 4.84892 16.4972 4.43776 17.2608 4.08534V7.62425H19.9921V0.531738C17.3929 0.531738 10.2123 3.77697 9.16974 8.8871C4.05961 9.92969 0.84375 17.0809 0.84375 19.6801H20.0068V12.6169H17.2755V16.9488H4.36798C4.7204 16.1999 5.13156 15.4803 5.60146 14.8049C6.27694 13.8357 7.49573 12.3526 9.03758 11.7505V15.8181H11.7542Z" fill="white"/>
<path d="M27.5398 11.4422H31.8717V22.0736H34.5883V11.7212C36.1301 12.3232 37.3636 13.8063 38.0244 14.7755C38.509 15.4657 38.9201 16.1999 39.2725 16.9635H35.7336V19.6801H42.8261C42.8261 17.0809 39.5809 9.90032 34.4708 8.85773C33.4282 3.73292 26.2769 0.531738 23.6778 0.531738V19.6947H30.741V16.9781H26.4091V4.07065C27.158 4.42308 27.8775 4.83424 28.553 5.30413C29.5222 5.97961 31.0053 7.19841 31.6073 8.74026H27.5545V11.4422" fill="white"/>
<path d="M32.0186 27.3452V31.6771H21.3871V34.3937H31.7396C31.1375 35.9356 29.6544 37.169 28.6852 37.8298C27.9951 38.2997 27.2608 38.7256 26.5119 39.078V35.5391H23.7954V42.6316C26.4092 42.6316 33.5751 39.3864 34.6177 34.2615C39.7425 33.219 42.9437 26.0677 42.9437 23.4686H23.7807V30.5317H26.5119V26.1999H39.4194C39.067 26.9488 38.6559 27.6683 38.186 28.3438C37.5105 29.3129 36.2917 30.7961 34.7498 31.4128V27.3599H32.0186" fill="white"/>
<path d="M16.1301 31.6771H11.7982V21.0457H9.08164V31.4128C7.53979 30.8107 6.3063 29.3129 5.64551 28.3438C5.17561 27.6536 4.74977 26.9194 4.39735 26.1705H7.93626V23.4539H0.84375C0.84375 26.053 4.08898 33.2337 9.19911 34.2762C10.2417 39.3864 17.3929 42.6022 20.0068 42.6022V23.4392H12.9436V26.1558H17.2755V39.0486C16.5266 38.6962 15.807 38.285 15.1316 37.8151C14.1624 37.1397 12.6793 35.9209 12.0772 34.379H16.1301V31.6771Z" fill="white"/>
</g>
</g>
</svg>
