<svg width="176" height="40" viewBox="0 0 176 40" fill="none" xmlns="http://www.w3.org/2000/svg">
<g id="paramount">
<path id="path850" fill-rule="evenodd" clip-rule="evenodd" d="M88.4674 20.6871C87.407 21.0178 86.3095 21.2677 85.212 21.378C83.0615 28.9188 77.9745 35.1514 69.6766 35.1514C69.2391 35.1514 68.8757 35.1514 68.4679 35.1147C64.9604 34.7913 62.6541 33.0126 62.7283 29.9331C62.7283 28.8821 63.1287 28.1177 64.0853 28.1177H64.1224C64.7008 28.1177 65.2125 28.6248 65.1828 29.2055C65.1828 29.4995 65.0345 30.0801 65.0345 30.477C65.0345 32.5055 66.2062 33.9902 68.4308 34.3503C68.8016 34.387 69.1649 34.4238 69.5283 34.4238C80.1695 34.4238 80.429 17.0269 88.3932 10.8678C88.764 10.6106 89.0903 10.3607 89.4537 10.1402L89.7132 10.4268C89.4907 10.6473 89.3498 10.9046 89.2386 11.0442C87.5182 13.5137 86.4578 16.8064 85.6199 19.8198L85.4345 20.3637C89.602 20.0697 93.0724 16.5565 93.0724 12.4627C93.0724 7.5678 89.1274 5.71566 84.2999 5.71566C82.1791 5.67891 80.0953 6.0464 78.0857 6.80342C73.8441 8.36157 69.7507 11.9556 69.7507 17.3209C69.7507 19.9301 70.9595 22.3923 73.8812 22.3923C76.4766 22.3923 77.9374 20.4372 77.8262 18.0044C77.7965 17.7178 78.0116 17.1372 78.8569 17.1372C79.8803 17.1372 79.8432 18.0044 79.8432 18.0044C79.8432 21.1207 77.2478 22.8994 73.9553 22.8994C71.2858 22.8994 69.4541 21.9586 68.4308 20.474C67.7782 19.4597 67.4075 18.2249 67.4445 16.9534C67.4445 15.5055 67.7782 14.0576 68.4308 12.7861C70.8112 7.96468 77.3145 4.84839 84.4111 4.84839C91.0628 4.84839 96.6244 7.3473 96.6244 12.5656C96.6244 17.0637 92.2715 19.6361 88.4674 20.6871ZM174.094 18.5483H176L175.592 19.4229H173.656C173.545 19.7096 172.893 21.1207 172.27 22.576C171.535 24.2738 170.735 26.0524 170.698 26.0892C170.149 27.5003 169.778 28.5513 169.778 29.3157C169.778 30.0801 170.149 30.4035 170.772 30.4035C171.32 30.3667 171.832 30.183 172.27 29.8228C173.07 29.2422 173.879 28.3015 174.568 27.3239L175.08 27.7943C174.316 28.8821 173.434 30.0433 172.307 30.8004C171.498 31.3442 170.586 31.675 169.637 31.675C168.206 31.675 167.183 30.8371 167.183 29.132C167.183 28.4852 167.294 27.9046 167.516 27.2872C166.604 28.5146 164.884 30.1462 163.163 30.1462C162.029 30.1462 161.517 29.426 161.517 28.5146C161.554 27.8311 161.74 27.1402 162.029 26.5228C162.363 25.7658 162.8 24.8177 163.423 23.5535C164.076 22.1718 164.81 20.7974 164.81 20.2902V20.2167C164.81 19.9962 164.624 19.8566 164.409 19.8566C163.163 19.8566 161.851 21.6279 160.494 24.6413L158.121 29.9331H155.155L156.074 27.9046C155.014 29.1687 153.916 30.183 152.485 30.183C151.247 30.183 150.987 29.3525 150.987 28.4852C150.987 28.1569 151.024 27.8286 151.098 27.5003H151.061C149.89 29.0585 148.281 30.183 147.079 30.183C145.871 30.183 145.285 29.4627 145.285 28.4117C145.322 27.7208 145.507 27.0667 145.796 26.4493C146.234 25.435 146.82 24.2076 147.368 23.0831L147.843 22.1056C147.443 22.3188 147.005 22.429 146.568 22.429C146.234 22.4657 145.908 22.3923 145.611 22.2453C145.507 23.3698 145.136 24.4575 144.662 25.5085C143.349 28.4117 141.191 30.2565 138.522 30.2565C136.253 30.2565 135.378 28.9188 135.266 27.3974V26.9932C133.806 28.9188 132.523 30.183 130.81 30.183C129.49 30.183 129.015 29.426 129.015 28.5881C129.052 28.0075 129.201 27.4342 129.453 26.8903L132.085 21.3412C132.234 21.0546 132.308 20.6871 132.345 20.3637C132.345 20.033 132.234 19.8933 131.937 19.8933C130.951 19.8933 129.675 21.1575 128.504 23.8034L125.76 29.9331H122.764L126.605 21.1207C126.746 20.8708 126.82 20.5769 126.857 20.2902V20.2167C126.82 19.9962 126.642 19.8566 126.457 19.8933C125.649 19.8933 124.076 21.3045 122.912 23.9136L120.243 29.9331H117.314L118.233 27.9046C117.024 29.3525 116.038 30.1095 114.829 30.1095C113.732 30.1095 113.183 29.3157 113.183 28.3749C113.183 28.1177 113.183 27.9046 113.22 27.6841C112.419 28.6616 110.988 30.1095 109.453 30.1095C107.992 30.1095 107.258 29.2422 107.295 27.8311C107.295 26.1627 108.289 24.1341 109.713 22.2085C109.09 22.6127 108.43 22.8994 107.807 22.8994C107.043 22.8994 106.747 22.5025 106.747 21.9586C106.747 21.4147 107.191 20.8341 107.191 20.6136C107.191 20.5401 107.154 20.5107 107.043 20.5107C106.747 20.5107 105.686 21.5617 104.774 23.627L101.964 29.9331H99.1086L100.021 27.8678C98.9232 29.2422 97.5365 30.1095 96.4761 30.1095C95.3045 30.1095 94.904 29.426 94.904 28.4484C94.9411 28.2647 94.9782 28.0442 95.0153 27.8678C94.2811 28.8453 92.9686 30.1095 91.3224 30.1095C89.8615 30.1095 89.1274 29.2422 89.1645 27.8311C89.1645 26.0892 90.2249 23.9504 91.7599 21.9586C93.1466 20.1065 95.7791 18.2984 98.4857 18.2984C100.317 18.2984 101.741 18.6218 101.519 19.129L98.5228 25.8687C98.2336 26.4493 97.759 27.5371 97.759 28.0075C97.759 28.3015 97.8999 28.4117 98.1223 28.4117C99.1086 28.4117 100.903 25.9054 101.964 23.5168L104.225 18.4381H106.858L106.094 20.2902C107.006 19.2392 108.289 18.2249 109.342 18.2249C109.891 18.2249 110.113 18.5116 110.113 18.9158C110.113 19.8198 109.127 20.9811 109.127 21.378C109.127 21.4882 109.201 21.5911 109.379 21.5911C109.75 21.5911 110.477 21.1942 111.463 20.3637C112.857 19.1657 114.792 18.2617 116.661 18.2617C118.485 18.2617 119.909 18.5851 119.694 19.0922L116.698 25.8393C116.513 26.3097 116.001 27.4342 116.001 27.9046C116.001 28.1912 116.149 28.3015 116.364 28.3015C117.314 28.3015 119.071 25.9422 120.131 23.5535L122.401 18.4748H125.07L124.299 20.3637C125.471 19.0187 126.783 18.2617 128.066 18.2617C129.089 18.2617 129.564 18.7688 129.564 19.7463C129.564 19.9668 129.564 20.1432 129.527 20.3637C130.736 19.0555 132.234 18.2617 133.62 18.2617C134.606 18.2617 135.229 18.8791 135.229 19.7463C135.229 20.5769 134.866 21.378 134.317 22.6495L132.382 26.7066C132.271 26.9564 131.974 27.6106 131.974 27.9046C131.974 28.1912 132.122 28.3015 132.345 28.3015C133.22 28.3015 134.317 26.9564 135.378 25.2587C135.778 23.9137 136.364 22.6127 137.135 21.4147C138.262 19.6728 139.983 18.2617 142.437 18.2617C144.187 18.2617 145.359 19.276 145.544 21.1207C145.648 21.3412 145.945 21.5617 146.493 21.5617C147.665 21.5617 148.392 20.5401 148.829 19.7096L149.415 18.4381H152.381L149.816 23.9504L148.577 26.6698C148.392 27.0299 148.177 27.5738 148.177 27.8678V27.9707C148.177 28.1912 148.392 28.3382 148.577 28.3015C149.749 28.3015 151.61 25.4718 152.344 23.8034L154.717 18.4381H157.676L155.229 23.9504C155.229 23.9504 153.916 27.0667 153.805 27.2872C153.694 27.5003 153.657 27.6841 153.62 27.9046C153.62 28.1545 153.694 28.3015 153.953 28.3015C155.081 28.3015 156.912 25.3248 157.824 23.5535L160.056 18.4748H162.8L162.066 20.2167C163.201 19.0555 164.409 18.2617 165.759 18.2617C166.93 18.2617 167.553 19.0187 167.553 19.9668C167.553 20.9076 166.604 22.8259 165.981 24.0606C165.573 24.8912 164.995 26.0524 164.661 26.8535C164.409 27.5003 164.335 27.7208 164.335 27.9707C164.335 28.1912 164.483 28.3015 164.736 28.3015C165.833 28.3015 167.731 25.729 168.94 23.0831L170.66 19.3495H169.229L169.637 18.4748H170.987L172.121 15.9024L172.781 14.381H175.703L174.094 18.5483ZM96.6615 23.2963L98.5228 19.2025C97.0619 19.2025 95.7049 20.2167 94.6445 21.6279C93.1466 23.6564 91.9749 26.1994 91.9453 27.6106C91.9453 28.1545 92.2345 28.3015 92.6349 28.3015C93.7695 28.3015 95.2674 26.3758 96.6615 23.2963ZM114.829 23.2963L116.691 19.2025C115.23 19.2025 113.88 20.2167 112.82 21.6279C111.322 23.6564 110.15 26.1994 110.113 27.6106C110.15 28.1545 110.439 28.3015 110.847 28.3015C112.012 28.3015 113.443 26.4493 114.829 23.2963ZM142.467 19.2392C141.881 19.2392 141.369 19.6728 140.606 20.7239C138.959 23.0096 137.751 26.3391 137.61 27.7576C137.498 28.5881 137.676 29.132 138.374 29.132C138.885 29.132 139.434 28.8453 140.094 27.934C141.74 25.6923 143.127 21.8851 143.201 20.327C143.201 19.7096 143.053 19.2392 142.467 19.2392Z" fill="white"/>
<path id="path842" fill-rule="evenodd" clip-rule="evenodd" d="M19.844 32.85L19.034 34.7395C19.034 34.7395 17.5976 34.4256 15.1614 38.3302C15.0728 38.4809 14.3831 38.0477 14.7565 37.4011L16.3194 34.796C16.3827 34.6453 16.2878 34.457 16.0979 34.457L17.7875 31.6698C18.0026 31.2994 19.129 29.3785 19.7807 28.7006L21.1855 27.307C21.2804 27.2442 21.407 27.3697 21.3437 27.4639L19.7491 30.7721C19.0657 32.0716 19.4707 32.5361 19.7175 32.6303C19.8124 32.6616 19.8756 32.7872 19.844 32.85ZM50.5465 25.0785C50.5465 30.6529 48.7051 35.8192 45.6172 39.9686C44.7123 39.5669 44.0858 39.0082 43.5859 38.3302C39.9981 33.8983 37.4416 31.0546 36.8468 30.4331C35.5686 29.0709 35.0054 28.9768 34.0373 28.5122C33.8538 28.4181 33.7589 28.3302 33.6639 28.1419L28.7662 19.6296C28.4245 18.914 27.893 18.3302 27.2412 17.8657L26.02 17.0308C25.7732 16.8424 25.4315 16.8424 25.1783 17.0308L24.1786 17.7401C24.09 17.8029 24.0267 17.8657 23.9634 17.9535L21.6538 21.1425L20.5337 22.0151L12.7948 31.764L12.0735 32.0716C11.9174 32.1343 11.7929 32.2285 11.7001 32.3541L6.99223 38.3302C6.58725 38.8261 5.99243 39.5041 4.92936 39.9686C1.84139 35.8192 0 30.6529 0 25.0785C0 11.2367 11.2951 0 25.2733 0C39.2514 0 50.5718 11.2367 50.5465 25.0785ZM5.8026 25.1412L6.80239 23.7476L5.15083 24.275L4.15104 22.8814V24.5826L2.49948 25.1099L4.15104 25.6372V27.3384L5.15083 25.9448L6.80239 26.4721L5.8026 25.1412ZM8.20717 32.0716L6.80239 31.086L7.33393 29.4413L5.92916 30.4331L4.52438 29.4413L5.05592 31.086L3.65114 32.0716H5.36598L5.89752 33.7163L6.42905 32.0716H8.20717ZM8.08061 18.1105H6.36577L5.83424 16.4721L5.3027 18.1105H3.58787L4.99264 19.1023L4.4611 20.7407L5.86588 19.7552L7.27065 20.7407L6.73912 19.1023L8.08061 18.1105ZM9.51702 13.6535L11.1686 13.1262L9.51702 12.5989V10.8977L8.51723 12.2913L6.86567 11.764L7.86547 13.1576L6.86567 14.5512L8.51723 14.0239L9.51702 15.4175V13.6535ZM15.598 9.44131L14.1933 8.44947L14.7248 6.81105L13.32 7.80289L11.9153 6.81105L12.4468 8.44947L11.042 9.44131H12.7632L13.2884 11.086L13.8199 9.44131H15.598ZM20.9008 7.27558L19.9073 5.88198L20.9008 4.48839L19.2492 5.01569L18.2494 3.6221V5.32329L16.5978 5.8506L18.2494 6.3779V8.0791L19.2492 6.6855L20.9008 7.27558ZM27.4817 4.1494H25.7668L25.2353 2.51099L24.7101 4.1494H22.9889L24.3937 5.14124L23.8622 6.77966L25.2669 5.7941L26.6717 6.77966L26.1402 5.14124L27.4817 4.1494ZM33.974 5.78782L32.3224 5.26679V3.55932L31.3227 4.95292L29.6711 4.42561L30.6646 5.81921L29.6711 7.21281L31.3227 6.6855L32.3224 8.0791V6.3779L33.974 5.78782ZM44.7376 25.0471L43.7378 26.4407L45.3894 25.9134L46.3892 27.307V25.5995L48.0407 25.0785L46.3892 24.5512V22.85L45.3894 24.2373L43.7378 23.7163L44.7376 25.0471ZM37.8403 9.44131H39.5551L38.1504 8.44947L38.6819 6.81105L37.2771 7.80289L35.8787 6.81105L36.4039 8.44947L35.0054 9.44131H36.7203L37.2518 11.0797L37.8403 9.44131ZM42.0166 14.0866L43.6682 14.6139L42.6747 13.2203L43.6682 11.8267L42.0166 12.3541L41.0169 10.9605V12.6616L39.3653 13.189L41.0169 13.7163V15.4175L42.0166 14.0866ZM42.3647 18.1105L43.7695 19.1023L43.2379 20.747L44.6427 19.7552L46.0411 20.747L45.5159 19.1023L46.9144 18.1105H45.1995L44.668 16.4721L44.1428 18.1105H42.3647ZM46.9776 32.0778L45.5792 31.086L46.1044 29.4413L44.6996 30.4331L43.3012 29.4413L43.8264 31.086L42.428 32.0778H44.1428L44.6743 33.7163L45.1995 32.0778H46.9776ZM29.1016 38.7633L29.3231 40H24.8936C24.7987 39.6296 24.7354 39.2593 24.7354 38.8889C24.7354 36.8111 26.6717 32.8814 26.6717 32.8814L26.0453 32.6303C25.2037 32.2913 24.2671 32.1092 23.3306 32.1092H20.9008L23.5205 26.0703C23.704 25.6685 23.3939 25.204 22.9573 25.204L25.7985 18.6692L26.387 19.0709C26.8236 19.3848 27.1969 19.818 27.45 20.3076L27.4817 20.339L33.4678 30.7721C33.5311 30.8663 33.6576 30.8035 33.6576 30.7156V29.9372C33.7525 29.9686 33.8474 30.0314 33.936 30.0628C34.5625 30.339 34.9675 30.4959 35.7774 31.3936C35.8091 31.3936 38.3971 34.1808 42.4533 39.1965C42.6431 39.4727 42.8646 39.7238 43.1114 39.9686C40.7068 39.9686 38.2453 39.9058 37.3404 39.8431L36.309 38.1419C35.7774 37.1186 33.6576 34.7081 33.6576 34.7081C33.4425 34.457 33.0944 34.7081 33.2526 35.0785L34.3727 38.0477C34.7523 38.9454 34.5625 39.4099 34.4359 39.5982C31.8162 39.3534 29.1649 38.732 29.1016 38.7633Z" fill="white"/>
</g>
</svg>
